<svg width="102" height="20" viewBox="0 0 102 20" fill="none" xmlns="http://www.w3.org/2000/svg">
<path d="M9.11444 9.198L0 0V19.99V20H3.7342V9.11L9.11444 14.54L14.4927 9.11V20H18.2269V19.99V0L9.11444 9.198Z" fill="url(#paint0_radial)"/>
<path d="M28.4881 20L33.6532 8.978L38.6012 20H42.7025L33.7243 0L24.3572 20H28.4881Z" fill="url(#paint1_radial)"/>
<path d="M51.6058 20H55.338V3.782H60.4341V0H46.5098V3.782H51.6058V20Z" fill="url(#paint2_radial)"/>
<path d="M67.3616 0H81.2878V3.782H76.1918V20H72.4596V3.782H67.3616V0Z" fill="url(#paint3_radial)"/>
<path d="M101.739 20L97.1048 11.882C97.8393 11.2645 98.4317 10.492 98.8408 9.61831C99.2499 8.74465 99.4657 7.79099 99.4732 6.824C99.4732 3.062 96.2759 0 92.3463 0H89.0779V3.782H92.3404C92.4568 3.782 92.5733 3.782 92.6877 3.798C94.3969 3.954 95.7351 5.252 95.7351 6.824C95.7351 8.396 94.3969 9.694 92.6877 9.85C92.5723 9.86136 92.4563 9.8667 92.3404 9.866H91.1009V13.648H92.3404C92.8039 13.6475 93.2664 13.6033 93.7219 13.516L97.4246 20H101.739Z" fill="url(#paint4_radial)"/>
<defs>
<radialGradient id="paint0_radial" cx="0" cy="0" r="1" gradientUnits="userSpaceOnUse" gradientTransform="translate(18.8966 20.1958) scale(26.8968 27.2555)">
<stop stop-color="#EAD9E3" stop-opacity="0"/>
<stop offset="0.6" stop-color="#EAD9E3"/>
</radialGradient>
<radialGradient id="paint1_radial" cx="0" cy="0" r="1" gradientUnits="userSpaceOnUse" gradientTransform="translate(32.2133 11.0141) scale(18.0167 18.2569)">
<stop offset="0.4" stop-color="#EAD9E3"/>
<stop offset="0.8" stop-color="#EAD9E3" stop-opacity="0"/>
</radialGradient>
<radialGradient id="paint2_radial" cx="0" cy="0" r="1" gradientUnits="userSpaceOnUse" gradientTransform="translate(48.952 10.926) scale(21.0337 21.3142)">
<stop offset="0.3" stop-color="#EAD9E3"/>
<stop offset="0.7" stop-color="#EAD9E3" stop-opacity="0"/>
</radialGradient>
<radialGradient id="paint3_radial" cx="0" cy="0" r="1" gradientUnits="userSpaceOnUse" gradientTransform="translate(80.5711 -2.08402) scale(33.3512 33.796)">
<stop offset="0.4" stop-color="#EAD9E3"/>
<stop offset="0.9" stop-color="#EAD9E3" stop-opacity="0"/>
</radialGradient>
<radialGradient id="paint4_radial" cx="0" cy="0" r="1" gradientUnits="userSpaceOnUse" gradientTransform="translate(87.8354 -0.036381) scale(23.9232 24.2422)">
<stop offset="0.1" stop-color="#EAD9E3" stop-opacity="0"/>
<stop offset="0.7" stop-color="#EAD9E3"/>
</radialGradient>
</defs>
</svg>
