<!--
    Copyright (c) MATTR Limited, 2020. All rights reserved.
    "MATTR" is a trademark of MATTR Limited, registered in New Zealand and other countries.
    https://mattr.global
-->
<svg width="225" height="40" viewBox="0 0 225 40" fill="none" xmlns="http://www.w3.org/2000/svg">
<g clip-path="url(#clip0_2_2)">
<path d="M18.47 18.3964L0 0V39.9804V40H7.568L7.5684 18.22L18.47 29.0784L29.372 18.22L29.3716 40H36.94V39.9804V0L18.47 18.3964Z" fill="url(#paint0_radial_2_2)"/>
<path d="M57.7372 40L68.2048 17.9552L78.2328 40H86.5424L68.3488 0L49.3656 40H57.7372Z" fill="url(#paint1_radial_2_2)"/>
<path d="M104.589 40H112.153V7.564H122.481V0H94.26V7.564H104.589V40Z" fill="url(#paint2_radial_2_2)"/>
<path d="M136.521 0H164.742V7.564H154.414V40H146.85V7.564H136.521V0Z" fill="url(#paint3_radial_2_2)"/>
<path d="M206.19 40L196.804 23.766C198.289 22.529 199.487 20.9828 200.313 19.2353C201.14 17.4878 201.575 15.581 201.588 13.648C201.588 6.1222 195.108 0 187.144 0H180.532V7.564H187.144C187.381 7.564 187.615 7.57449 187.846 7.59548C191.311 7.90748 194.024 10.5029 194.024 13.648C194.024 16.7931 191.311 19.389 187.846 19.7012C187.615 19.722 187.381 19.7325 187.144 19.7327H184.632V27.2967H187.144C188.087 27.2958 189.028 27.2074 189.955 27.0327L197.449 40H206.19Z" fill="url(#paint4_radial_2_2)"/>
<path d="M213.868 1.88H212.032V0.656006H217.056V1.88H215.22V6.908H213.868V1.88Z" fill="black"/>
<path d="M217.916 0.656006H219.02L220.984 3.47601L222.944 0.656006H224.048V6.908H222.7V2.98401L221.352 4.94801H220.616L219.264 2.98401V6.908H217.916V0.656006Z" fill="black"/>
</g>
<defs>
<radialGradient id="paint0_radial_2_2" cx="0" cy="0" r="1" gradientUnits="userSpaceOnUse" gradientTransform="translate(37.9316 39.4988) scale(54.1743 54.1743)">
<stop stop-color="#333132" stop-opacity="0"/>
<stop offset="0.6" stop-color="#333132"/>
</radialGradient>
<radialGradient id="paint1_radial_2_2" cx="0" cy="0" r="1" gradientUnits="userSpaceOnUse" gradientTransform="translate(64.7531 21.2512) scale(36.2862 36.2862)">
<stop offset="0.3988" stop-color="#333132"/>
<stop offset="0.8" stop-color="#333132" stop-opacity="0"/>
</radialGradient>
<radialGradient id="paint2_radial_2_2" cx="0" cy="0" r="1" gradientUnits="userSpaceOnUse" gradientTransform="translate(98.4664 21.0748) scale(42.3634 42.3634)">
<stop offset="0.3" stop-color="#333132"/>
<stop offset="0.7" stop-color="#333132" stop-opacity="0"/>
</radialGradient>
<radialGradient id="paint3_radial_2_2" cx="0" cy="0" r="1" gradientUnits="userSpaceOnUse" gradientTransform="translate(162.15 -4.7843) scale(67.1724 67.1724)">
<stop offset="0.4012" stop-color="#333132"/>
<stop offset="0.9" stop-color="#333132" stop-opacity="0"/>
</radialGradient>
<radialGradient id="paint4_radial_2_2" cx="0" cy="0" r="1" gradientUnits="userSpaceOnUse" gradientTransform="translate(176.782 -0.715046) scale(48.1837 48.1837)">
<stop offset="0.1" stop-color="#333132" stop-opacity="0"/>
<stop offset="0.7" stop-color="#333132"/>
</radialGradient>
<clipPath id="clip0_2_2">
<rect width="225" height="40" fill="white"/>
</clipPath>
</defs>
</svg>
